<?xml version="1.0" standalone="no"?>
<!DOCTYPE svg PUBLIC "-//W3C//DTD SVG 20010904//EN"
 "http://www.w3.org/TR/2001/REC-SVG-20010904/DTD/svg10.dtd">
<svg version="1.0" xmlns="http://www.w3.org/2000/svg"
 width="1100.000000pt" height="220.000000pt" viewBox="0 0 1100.000000 220.000000"
 preserveAspectRatio="xMidYMid meet">

<g transform="translate(0.000000,220.000000) scale(0.100000,-0.100000)"
fill="#000000" stroke="none">
<path d="M0 1100 l0 -1100 655 0 c430 0 655 3 655 10 0 6 7 10 15 10 8 0 15
-4 15 -10 0 -7 492 -10 1455 -10 1120 0 1454 3 1452 12 -1 6 7 14 17 16 14 3
17 0 13 -12 -6 -15 55 -16 682 -16 633 0 689 1 687 16 -2 25 24 29 31 5 l5
-21 1618 0 c1279 0 1619 3 1623 13 4 9 7 9 18 -1 10 -9 231 -12 1036 -12
l1023 0 0 1100 0 1100 -2879 0 c-2568 0 -2880 -2 -2891 -15 -12 -14 -15 -14
-30 0 -14 13 -70 15 -397 15 -296 0 -382 -3 -386 -12 -3 -10 -7 -10 -19 -1
-12 10 -480 13 -2206 13 l-2192 0 0 -1100z m6300 1080 c0 -5 -4 -10 -10 -10
-5 0 -10 5 -10 10 0 6 5 10 10 10 6 0 10 -4 10 -10z m2960 0 c0 -5 -4 -10 -10
-10 -5 0 -10 5 -10 10 0 6 5 10 10 10 6 0 10 -4 10 -10z m1090 0 c0 -5 -4 -10
-10 -10 -5 0 -10 5 -10 10 0 6 5 10 10 10 6 0 10 -4 10 -10z m-4990 -40 c0 -5
-5 -10 -11 -10 -5 0 -7 5 -4 10 3 6 8 10 11 10 2 0 4 -4 4 -10z m1080 -43 c0
-19 -10 -27 -26 -20 -21 8 -17 33 6 33 11 0 20 -6 20 -13z m2080 -1 c0 -3 -4
-8 -10 -11 -5 -3 -10 -1 -10 4 0 6 5 11 10 11 6 0 10 -2 10 -4z m-4820 -76 c0
-5 -4 -10 -10 -10 -5 0 -10 5 -10 10 0 6 5 10 10 10 6 0 10 -4 10 -10z m6020
0 c0 -5 -2 -10 -4 -10 -3 0 -8 5 -11 10 -3 6 -1 10 4 10 6 0 11 -4 11 -10z
m-8016 -41 c-8 -14 -34 -11 -34 4 0 8 3 17 7 20 9 9 34 -13 27 -24z m1384 -11
c-7 -19 -38 -22 -38 -4 0 10 9 16 21 16 12 0 19 -5 17 -12z m4672 -8 c0 -5 -4
-10 -10 -10 -5 0 -10 5 -10 10 0 6 5 10 10 10 6 0 10 -4 10 -10z m828 -34 c-2
-13 -10 -21 -23 -21 -23 0 -33 34 -14 45 20 13 40 -1 37 -24z m1612 -1 c0 -8
-4 -15 -9 -15 -13 0 -22 16 -14 24 11 11 23 6 23 -9z m-4380 -35 c0 -5 -4 -10
-10 -10 -5 0 -10 5 -10 10 0 6 5 10 10 10 6 0 10 -4 10 -10z m-974 -21 c10
-17 -13 -36 -27 -22 -12 12 -4 33 11 33 5 0 12 -5 16 -11z m1776 -68 c-16 -51
-74 -137 -161 -235 -86 -98 -346 -341 -461 -433 -47 -38 -105 -92 -129 -122
-38 -46 -42 -55 -27 -63 20 -11 20 -43 1 -97 -8 -22 -12 -41 -9 -41 9 0 94 51
158 93 33 22 93 74 135 116 58 59 97 87 163 120 96 49 169 61 176 29 8 -41
-141 -153 -286 -214 -75 -32 -84 -41 -108 -102 -25 -64 -11 -71 80 -38 71 26
257 136 264 156 2 6 11 10 19 10 27 0 119 78 155 130 36 54 48 62 69 50 11 -7
2 -25 -40 -87 -30 -43 -45 -71 -35 -63 10 9 45 37 76 64 101 83 208 139 208
107 0 -5 -19 -21 -43 -34 -36 -21 -49 -38 -74 -94 -17 -37 -34 -83 -38 -100
-9 -45 11 -44 92 8 35 22 69 39 75 37 10 -4 -119 -87 -154 -101 -27 -10 -48 2
-48 28 0 12 11 53 25 90 14 37 24 72 22 78 -5 15 -224 -172 -295 -252 -37 -42
-71 -71 -83 -71 -10 0 -19 3 -19 8 0 4 38 50 85 102 83 94 102 121 68 100 -10
-6 -34 -21 -54 -33 -19 -12 -74 -44 -122 -72 -47 -27 -86 -54 -85 -60 2 -36
-24 -51 -36 -20 -4 13 -10 13 -47 0 -99 -35 -124 -5 -92 108 4 14 -7 10 -49
-16 -29 -19 -81 -49 -116 -66 -53 -27 -62 -35 -57 -52 5 -15 2 -22 -14 -26
-12 -3 -21 -8 -21 -12 0 -15 -117 -181 -178 -253 -77 -93 -152 -152 -216 -174
-92 -32 -88 6 18 165 231 343 729 955 996 1222 167 168 240 206 212 110z m846
22 c44 -32 74 -92 67 -135 -3 -22 -1 -40 6 -44 8 -4 7 -9 -2 -15 -12 -7 -12
-12 0 -31 10 -16 10 -23 2 -26 -6 -2 -9 -8 -5 -13 3 -5 -2 -9 -11 -9 -18 0
-15 -20 11 -74 23 -48 15 -54 -10 -7 -23 44 -23 44 -28 17 -4 -20 1 -35 18
-53 30 -32 31 -71 4 -124 -12 -22 -17 -45 -13 -52 16 -27 78 -97 85 -97 5 0
52 44 106 98 168 170 204 170 333 1 33 -43 75 -89 94 -102 24 -17 31 -27 25
-37 -11 -18 0 -31 64 -82 40 -32 54 -38 77 -33 24 6 29 3 35 -19 6 -24 45 -46
83 -46 26 0 43 -21 30 -37 -9 -10 -48 -13 -156 -13 -158 0 -168 4 -144 58 12
24 10 28 -20 53 -35 29 -60 29 -52 0 2 -9 -9 -72 -26 -138 -17 -67 -31 -136
-31 -152 0 -20 -5 -31 -14 -31 -17 0 -26 -31 -26 -92 0 -57 14 -98 34 -98 15
0 29 -29 24 -50 -2 -7 17 -23 42 -36 25 -12 45 -29 45 -36 0 -17 -74 -32 -117
-24 -46 8 -188 101 -188 123 0 9 12 29 26 44 22 23 28 41 33 97 4 38 3 84 -1
103 -8 41 5 167 21 197 17 33 15 33 -51 2 -76 -35 -257 -68 -269 -49 -5 8 -25
10 -63 6 -48 -5 -60 -2 -83 16 -56 47 -82 79 -121 154 -23 43 -41 71 -42 63 0
-8 -14 -64 -31 -123 -25 -85 -37 -110 -53 -117 -30 -11 -47 -35 -40 -54 8 -21
-24 -22 -54 0 -40 28 -20 79 39 99 l34 12 7 89 c4 49 14 110 22 135 19 58 12
170 -17 263 -21 66 -21 68 -3 82 10 7 24 15 29 17 7 2 5 16 -6 39 -21 44 -21
62 -2 78 8 7 15 19 15 26 0 8 -6 11 -15 8 -19 -8 -20 16 0 42 8 10 15 29 15
41 0 13 9 28 20 35 11 7 20 18 20 24 0 7 15 22 33 34 27 18 43 20 100 17 48
-3 77 -11 95 -24z m-7308 7 c0 -5 -4 -10 -10 -10 -5 0 -10 5 -10 10 0 6 5 10
10 10 6 0 10 -4 10 -10z m3110 -21 c0 -5 -4 -9 -10 -9 -5 0 -10 7 -10 16 0 8
5 12 10 9 6 -3 10 -10 10 -16z m2240 11 c0 -5 -4 -10 -10 -10 -5 0 -10 5 -10
10 0 6 5 10 10 10 6 0 10 -4 10 -10z m-1300 -28 c0 -24 -46 -96 -104 -161 -36
-40 -44 -56 -36 -66 8 -10 8 -15 -1 -20 -6 -4 -14 -3 -18 4 -4 6 -30 -13 -66
-50 -33 -33 -133 -128 -223 -212 -117 -109 -159 -153 -150 -160 9 -6 7 -7 -5
-3 -13 4 -38 -10 -82 -48 -34 -29 -84 -68 -109 -86 -52 -37 -102 -109 -112
-160 l-7 -33 33 7 c63 12 280 135 280 158 0 5 4 7 9 4 4 -3 30 22 56 55 96
123 155 179 186 179 16 0 29 -3 29 -6 0 -3 -49 -61 -108 -127 -122 -137 -212
-247 -212 -259 0 -19 34 -4 148 68 100 61 130 86 163 132 23 31 61 82 85 113
29 38 40 60 34 69 -12 19 -3 30 22 30 15 0 19 -5 15 -20 -3 -13 0 -20 9 -20 8
0 14 -5 14 -11 0 -6 -43 -69 -96 -140 -52 -71 -92 -134 -89 -139 3 -6 0 -10
-8 -10 -16 0 -55 -66 -45 -76 13 -13 115 45 173 99 44 40 71 76 98 131 53 105
127 181 127 129 0 -24 -33 -77 -90 -143 -47 -56 -66 -95 -49 -106 27 -17 76
13 158 95 68 69 104 95 173 130 96 49 169 61 176 29 8 -42 -147 -158 -291
-216 -61 -25 -70 -31 -92 -76 -28 -57 -31 -74 -11 -82 24 -9 168 54 254 111
45 30 95 61 111 69 42 22 140 114 168 159 24 38 45 44 51 15 2 -8 -13 -37 -32
-64 -62 -86 -59 -87 31 -14 87 71 168 120 198 120 26 0 16 -14 -30 -43 -37
-22 -51 -39 -75 -92 -39 -86 -48 -135 -26 -135 27 0 65 30 59 46 -4 10 2 13
19 12 32 -3 169 93 221 154 36 43 42 47 55 34 14 -13 12 -19 -10 -53 -14 -21
-71 -90 -127 -153 -149 -168 -153 -184 -25 -104 42 26 71 51 67 57 -3 6 -1 7
6 3 21 -14 119 70 278 240 21 23 69 41 80 30 3 -3 -21 -38 -53 -77 -159 -192
-245 -302 -241 -306 10 -9 67 28 67 43 0 11 5 14 16 10 18 -7 128 56 142 81 5
9 19 13 33 11 20 -3 10 -12 -61 -56 -47 -29 -121 -71 -165 -94 -71 -37 -88
-51 -150 -131 -87 -110 -363 -398 -411 -428 -32 -19 -37 -20 -51 -7 -35 36 36
159 160 274 35 33 112 97 173 143 118 91 193 166 194 194 0 9 6 17 14 17 7 0
35 25 61 55 25 30 44 55 41 55 -8 0 -270 -173 -277 -183 -4 -5 -16 -6 -28 -2
-38 12 -21 68 47 155 20 25 40 51 46 58 5 8 -17 -4 -50 -26 -125 -83 -174 -96
-174 -48 0 13 11 56 25 96 14 40 23 75 20 78 -9 9 -216 -170 -286 -248 -64
-71 -109 -100 -109 -70 0 5 30 42 66 82 36 40 75 86 87 103 l22 30 -35 -21
c-206 -126 -258 -155 -312 -173 -34 -12 -72 -21 -85 -21 -40 0 -49 42 -26 123
5 17 3 18 -26 3 -42 -22 -82 -21 -88 3 -4 17 -13 13 -71 -35 -75 -61 -136 -94
-175 -94 -23 0 -27 4 -27 28 0 15 9 45 21 66 11 21 19 40 17 41 -9 9 -143 -86
-140 -99 4 -20 -16 -30 -33 -16 -10 9 -21 8 -44 -4 -41 -22 -61 -20 -61 4 0
24 25 76 48 103 23 27 9 21 -74 -30 -88 -53 -178 -92 -213 -93 -22 0 -23 3
-18 48 2 26 8 55 12 65 5 12 -13 5 -60 -24 -75 -45 -182 -89 -219 -89 -37 0
-50 24 -43 81 3 27 3 48 -1 46 -4 -2 -46 -27 -93 -55 -75 -45 -156 -82 -179
-82 -23 0 -15 38 20 106 22 41 35 72 28 68 -7 -4 -41 -27 -75 -51 -77 -55
-192 -115 -204 -107 -18 10 -9 81 17 132 14 28 50 74 81 102 61 56 207 132
288 149 28 6 61 13 75 16 15 4 58 44 106 98 128 144 264 304 338 397 65 81 96
109 124 110 6 0 12 -6 12 -13 0 -7 -100 -127 -221 -267 -512 -589 -616 -720
-569 -720 41 0 279 151 314 200 42 56 97 98 204 152 104 54 162 63 162 27 0
-11 -5 -29 -10 -39 -17 -32 -131 -107 -244 -161 -93 -44 -109 -56 -126 -89
-25 -50 -26 -90 -2 -90 26 0 159 61 230 104 50 31 73 55 116 120 181 270 567
655 767 766 63 34 79 37 79 12z m-170 -2 c0 -5 -4 -10 -10 -10 -5 0 -10 5 -10
10 0 6 5 10 10 10 6 0 10 -4 10 -10z m5140 -51 c0 -5 -7 -9 -15 -9 -15 0 -20
12 -9 23 8 8 24 -1 24 -14z m-2280 -20 c0 -5 -7 -9 -15 -9 -15 0 -20 12 -9 23
8 8 24 -1 24 -14z m-3610 1 c0 -5 -4 -10 -10 -10 -5 0 -10 5 -10 10 0 6 5 10
10 10 6 0 10 -4 10 -10z m5900 -30 c0 -5 -4 -10 -10 -10 -5 0 -10 5 -10 10 0
6 5 10 10 10 6 0 10 -4 10 -10z m-3650 -20 c0 -5 -4 -10 -10 -10 -5 0 -10 5
-10 10 0 6 5 10 10 10 6 0 10 -4 10 -10z m605 -30 c0 -22 -29 -18 -33 3 -3 14
1 18 15 15 10 -2 18 -10 18 -18z m490 10 c3 -5 1 -10 -4 -10 -6 0 -11 5 -11
10 0 6 2 10 4 10 3 0 8 -4 11 -10z m1354 -56 c-9 -11 -15 -12 -25 -3 -11 9
-12 15 -3 25 9 11 15 12 25 3 11 -9 12 -15 3 -25z m281 26 c0 -5 -5 -10 -11
-10 -5 0 -7 5 -4 10 3 6 8 10 11 10 2 0 4 -4 4 -10z m-7595 -9 c7 -12 -12 -24
-25 -16 -11 7 -4 25 10 25 5 0 11 -4 15 -9z m7975 -1 c0 -5 -2 -10 -4 -10 -3
0 -8 5 -11 10 -3 6 -1 10 4 10 6 0 11 -4 11 -10z m455 -10 c3 -5 1 -10 -4 -10
-6 0 -11 5 -11 10 0 6 2 10 4 10 3 0 8 -4 11 -10z m875 -25 c0 -8 -4 -15 -10
-15 -5 0 -10 7 -10 15 0 8 5 15 10 15 6 0 10 -7 10 -15z m-4255 -14 c7 -12
-12 -24 -25 -16 -11 7 -4 25 10 25 5 0 11 -4 15 -9z m4603 -98 c-4 -22 -22
-20 -26 1 -2 10 3 16 13 16 10 0 15 -7 13 -17z m-1513 -12 c3 -5 1 -12 -5 -16
-5 -3 -10 1 -10 9 0 18 6 21 15 7z m-2925 -17 c0 -9 -7 -14 -17 -12 -25 5 -28
28 -4 28 12 0 21 -6 21 -16z m-4265 -4 c3 -5 1 -10 -4 -10 -6 0 -11 5 -11 10
0 6 2 10 4 10 3 0 8 -4 11 -10z m885 -10 c0 -5 -2 -10 -4 -10 -3 0 -8 5 -11
10 -3 6 -1 10 4 10 6 0 11 -4 11 -10z m155 -10 c0 -7 -6 -15 -12 -17 -8 -3
-13 4 -13 17 0 13 5 20 13 18 6 -3 12 -11 12 -18z m7905 -10 c0 -5 -4 -10 -10
-10 -5 0 -10 5 -10 10 0 6 5 10 10 10 6 0 10 -4 10 -10z m-6550 -50 c0 -47
-80 -81 -88 -38 -4 23 33 58 63 58 18 0 25 -5 25 -20z m4970 0 c0 -5 -2 -10
-4 -10 -3 0 -8 5 -11 10 -3 6 -1 10 4 10 6 0 11 -4 11 -10z m-1860 -30 c0 -5
-4 -10 -10 -10 -5 0 -10 5 -10 10 0 6 5 10 10 10 6 0 10 -4 10 -10z m-4355
-20 c3 -5 1 -10 -4 -10 -6 0 -11 5 -11 10 0 6 2 10 4 10 3 0 8 -4 11 -10z
m5373 -7 c-4 -22 -22 -20 -26 1 -2 10 3 16 13 16 10 0 15 -7 13 -17z m-7043
-13 c3 -5 1 -10 -4 -10 -6 0 -11 5 -11 10 0 6 2 10 4 10 3 0 8 -4 11 -10z
m-821 -21 c-3 -5 -10 -7 -15 -3 -5 3 -7 10 -3 15 3 5 10 7 15 3 5 -3 7 -10 3
-15z m4364 -10 c-2 -6 -8 -10 -13 -10 -5 0 -11 4 -13 10 -2 6 4 11 13 11 9 0
15 -5 13 -11z m2057 -29 c0 -22 -29 -18 -33 3 -3 14 1 18 15 15 10 -2 18 -10
18 -18z m-406 -3 c12 -15 5 -27 -16 -27 -7 0 -13 9 -13 20 0 23 13 26 29 7z
m2145 -25 c9 -14 -12 -35 -28 -29 -23 9 -20 37 3 37 11 0 22 -4 25 -8z m-6944
-42 c0 -5 -2 -10 -4 -10 -3 0 -8 5 -11 10 -3 6 -1 10 4 10 6 0 11 -4 11 -10z
m7860 0 c0 -5 -5 -10 -11 -10 -5 0 -7 5 -4 10 3 6 8 10 11 10 2 0 4 -4 4 -10z
m-8390 -20 c0 -5 -5 -10 -11 -10 -5 0 -7 5 -4 10 3 6 8 10 11 10 2 0 4 -4 4
-10z m4890 -24 c0 -11 -19 -15 -25 -6 -3 5 1 10 9 10 9 0 16 -2 16 -4z m-3370
-31 c0 -8 -7 -15 -15 -15 -16 0 -20 12 -8 23 11 12 23 8 23 -8z m-150 -5 c0
-5 -4 -10 -10 -10 -5 0 -10 5 -10 10 0 6 5 10 10 10 6 0 10 -4 10 -10z m3425
-29 c7 -12 -12 -24 -25 -16 -11 7 -4 25 10 25 5 0 11 -4 15 -9z m-4081 -29 c9
-14 -12 -35 -28 -29 -23 9 -20 37 3 37 11 0 22 -4 25 -8z m8056 -2 c0 -5 -2
-10 -4 -10 -3 0 -8 5 -11 10 -3 6 -1 10 4 10 6 0 11 -4 11 -10z m-3670 -10 c0
-5 -4 -10 -10 -10 -5 0 -10 5 -10 10 0 6 5 10 10 10 6 0 10 -4 10 -10z m4315
-20 c-3 -5 -10 -10 -16 -10 -5 0 -9 5 -9 10 0 6 7 10 16 10 8 0 12 -4 9 -10z
m-4850 -30 c-5 -8 -11 -8 -17 -2 -6 6 -7 16 -3 22 5 8 11 8 17 2 6 -6 7 -16 3
-22z m-1985 16 c0 -3 -4 -8 -10 -11 -5 -3 -10 -1 -10 4 0 6 5 11 10 11 6 0 10
-2 10 -4z m-1542 -28 c-3 -7 -11 -13 -18 -13 -7 0 -15 6 -17 13 -3 7 4 12 17
12 13 0 20 -5 18 -12z m-1798 -22 c0 -3 -4 -8 -10 -11 -5 -3 -10 -1 -10 4 0 6
5 11 10 11 6 0 10 -2 10 -4z m1925 -26 c3 -5 1 -10 -4 -10 -6 0 -11 5 -11 10
0 6 2 10 4 10 3 0 8 -4 11 -10z m2505 -45 c0 -8 -7 -15 -15 -15 -8 0 -15 7
-15 15 0 8 7 15 15 15 8 0 15 -7 15 -15z m3675 5 c3 -5 1 -10 -4 -10 -6 0 -11
5 -11 10 0 6 2 10 4 10 3 0 8 -4 11 -10z m-6345 -14 c0 -3 -4 -8 -10 -11 -5
-3 -10 -1 -10 4 0 6 5 11 10 11 6 0 10 -2 10 -4z m5820 -30 c0 -3 -4 -8 -10
-11 -5 -3 -10 -1 -10 4 0 6 5 11 10 11 6 0 10 -2 10 -4z m-710 -46 c0 -5 -4
-10 -10 -10 -5 0 -10 5 -10 10 0 6 5 10 10 10 6 0 10 -4 10 -10z m2550 -21 c0
-5 -7 -9 -15 -9 -15 0 -20 12 -9 23 8 8 24 -1 24 -14z m-9115 -24 c0 -21 -31
-33 -46 -18 -5 5 -7 17 -3 27 9 24 49 17 49 -9z m1785 -3 c0 -13 -12 -22 -22
-16 -10 6 -1 24 13 24 5 0 9 -4 9 -8z m7730 -2 c0 -5 -4 -10 -10 -10 -5 0 -10
5 -10 10 0 6 5 10 10 10 6 0 10 -4 10 -10z m-4510 -4 c0 -11 -19 -15 -25 -6
-3 5 1 10 9 10 9 0 16 -2 16 -4z m2206 -7 c3 -6 -1 -18 -10 -27 -15 -15 -17
-15 -32 0 -19 19 -11 38 16 38 10 0 22 -5 26 -11z m-1206 -29 c0 -5 -2 -10 -4
-10 -3 0 -8 5 -11 10 -3 6 -1 10 4 10 6 0 11 -4 11 -10z m4110 -35 c0 -8 -6
-15 -14 -15 -17 0 -28 14 -19 24 12 12 33 6 33 -9z m-9995 -4 c7 -12 -12 -24
-25 -16 -11 7 -4 25 10 25 5 0 11 -4 15 -9z m3775 -11 c0 -5 -5 -10 -11 -10
-5 0 -7 5 -4 10 3 6 8 10 11 10 2 0 4 -4 4 -10z m2700 0 c0 -5 -7 -10 -15 -10
-8 0 -15 5 -15 10 0 6 7 10 15 10 8 0 15 -4 15 -10z m3360 -10 c0 -5 -4 -10
-10 -10 -5 0 -10 5 -10 10 0 6 5 10 10 10 6 0 10 -4 10 -10z m-5090 -40 c0 -5
-4 -10 -10 -10 -5 0 -10 5 -10 10 0 6 5 10 10 10 6 0 10 -4 10 -10z m-3957
-14 c3 -7 0 -19 -6 -25 -14 -14 -38 5 -30 25 7 18 29 18 36 0z m7287 4 c0 -5
-4 -10 -10 -10 -5 0 -10 5 -10 10 0 6 5 10 10 10 6 0 10 -4 10 -10z m-8338
-15 c0 -5 -5 -11 -11 -13 -6 -2 -11 4 -11 13 0 9 5 15 11 13 6 -2 11 -8 11
-13z m1518 -5 c0 -5 -7 -10 -15 -10 -8 0 -15 5 -15 10 0 6 7 10 15 10 8 0 15
-4 15 -10z m6737 -5 c7 -20 -2 -29 -21 -22 -9 4 -13 13 -10 22 8 19 23 19 31
0z m-4847 1 c0 -11 -19 -15 -25 -6 -3 5 1 10 9 10 9 0 16 -2 16 -4z m3330 -6
c0 -5 -7 -10 -15 -10 -8 0 -15 5 -15 10 0 6 7 10 15 10 8 0 15 -4 15 -10z
m-4352 -33 c2 -10 -3 -17 -12 -17 -18 0 -29 16 -21 31 9 14 29 6 33 -14z
m5297 -27 c3 -5 1 -10 -4 -10 -6 0 -11 5 -11 10 0 6 2 10 4 10 3 0 8 -4 11
-10z m-6857 -18 c2 -7 -3 -12 -12 -12 -9 0 -16 7 -16 16 0 17 22 14 28 -4z
m1422 -6 c0 -3 -4 -8 -10 -11 -5 -3 -10 -1 -10 4 0 6 5 11 10 11 6 0 10 -2 10
-4z m520 -6 c0 -5 -5 -10 -11 -10 -5 0 -7 5 -4 10 3 6 8 10 11 10 2 0 4 -4 4
-10z m6045 0 c3 -5 1 -10 -4 -10 -6 0 -11 5 -11 10 0 6 2 10 4 10 3 0 8 -4 11
-10z m-4177 -17 c-2 -10 -10 -18 -18 -18 -8 0 -16 8 -18 18 -2 12 3 17 18 17
15 0 20 -5 18 -17z m-3008 -29 c0 -9 -7 -14 -17 -12 -25 5 -28 28 -4 28 12 0
21 -6 21 -16z m1804 -15 c-3 -5 -10 -7 -15 -3 -5 3 -7 10 -3 15 3 5 10 7 15 3
5 -3 7 -10 3 -15z m-2680 -20 c-3 -5 -10 -7 -15 -3 -5 3 -7 10 -3 15 3 5 10 7
15 3 5 -3 7 -10 3 -15z m1706 11 c0 -5 -4 -10 -10 -10 -5 0 -10 5 -10 10 0 6
5 10 10 10 6 0 10 -4 10 -10z m370 -14 c0 -3 -4 -8 -10 -11 -5 -3 -10 -1 -10
4 0 6 5 11 10 11 6 0 10 -2 10 -4z m4116 -7 c10 -17 -13 -36 -27 -22 -12 12
-4 33 11 33 5 0 12 -5 16 -11z m3109 1 c-3 -5 -10 -10 -16 -10 -5 0 -9 5 -9
10 0 6 7 10 16 10 8 0 12 -4 9 -10z m-5158 -16 c8 -22 -10 -49 -32 -49 -22 0
-40 27 -32 49 8 21 56 21 64 0z m593 1 c0 -8 -7 -15 -15 -15 -16 0 -20 12 -8
23 11 12 23 8 23 -8z m818 -3 c2 -7 -6 -12 -17 -12 -21 0 -27 11 -14 24 9 9
26 2 31 -12z m-5253 -13 c0 -7 -8 -15 -17 -17 -18 -3 -25 18 -11 32 10 10 28
1 28 -15z m4725 12 c0 -6 -4 -13 -10 -16 -5 -3 -10 1 -10 9 0 9 5 16 10 16 6
0 10 -4 10 -9z m-2148 -16 c0 -5 -5 -11 -11 -13 -6 -2 -11 4 -11 13 0 9 5 15
11 13 6 -2 11 -8 11 -13z m3768 -15 c0 -5 -2 -10 -4 -10 -3 0 -8 5 -11 10 -3
6 -1 10 4 10 6 0 11 -4 11 -10z m-5060 -24 c0 -3 -4 -8 -10 -11 -5 -3 -10 -1
-10 4 0 6 5 11 10 11 6 0 10 -2 10 -4z m5170 -6 c0 -5 -4 -10 -10 -10 -5 0
-10 5 -10 10 0 6 5 10 10 10 6 0 10 -4 10 -10z m-7520 -20 c0 -5 -4 -10 -10
-10 -5 0 -10 5 -10 10 0 6 5 10 10 10 6 0 10 -4 10 -10z m5697 -16 c4 -11 -1
-22 -12 -31 -16 -11 -21 -11 -33 1 -8 8 -12 22 -9 30 8 21 46 21 54 0z m2521
-2 c2 -7 -3 -12 -12 -12 -9 0 -16 7 -16 16 0 17 22 14 28 -4z m-7544 -13 c-3
-5 -10 -7 -15 -3 -5 3 -7 10 -3 15 3 5 10 7 15 3 5 -3 7 -10 3 -15z m8016 11
c0 -5 -4 -10 -10 -10 -5 0 -10 5 -10 10 0 6 5 10 10 10 6 0 10 -4 10 -10z
m1630 0 c0 -5 -2 -10 -4 -10 -3 0 -8 5 -11 10 -3 6 -1 10 4 10 6 0 11 -4 11
-10z m-8590 -10 c0 -5 -4 -10 -10 -10 -5 0 -10 5 -10 10 0 6 5 10 10 10 6 0
10 -4 10 -10z m2770 -4 c0 -3 -4 -8 -10 -11 -5 -3 -10 -1 -10 4 0 6 5 11 10
11 6 0 10 -2 10 -4z m4398 -7 c-2 -6 -8 -10 -13 -10 -5 0 -11 4 -13 10 -2 6 4
11 13 11 9 0 15 -5 13 -11z m402 -9 c0 -5 -2 -10 -4 -10 -3 0 -8 5 -11 10 -3
6 -1 10 4 10 6 0 11 -4 11 -10z m-4150 -20 c0 -5 -5 -10 -11 -10 -5 0 -7 5 -4
10 3 6 8 10 11 10 2 0 4 -4 4 -10z m4880 0 c0 -5 -7 -10 -15 -10 -8 0 -15 5
-15 10 0 6 7 10 15 10 8 0 15 -4 15 -10z m-3320 -10 c0 -5 -7 -10 -15 -10 -8
0 -15 5 -15 10 0 6 7 10 15 10 8 0 15 -4 15 -10z m1458 -18 c2 -7 -3 -12 -12
-12 -9 0 -16 7 -16 16 0 17 22 14 28 -4z m-643 -2 c-3 -5 -10 -10 -16 -10 -5
0 -9 5 -9 10 0 6 7 10 16 10 8 0 12 -4 9 -10z m-3815 -30 c0 -5 -4 -10 -10
-10 -5 0 -10 5 -10 10 0 6 5 10 10 10 6 0 10 -4 10 -10z m4438 -13 c2 -10 -3
-17 -12 -17 -18 0 -29 16 -21 31 9 14 29 6 33 -14z m-4829 -33 c-9 -11 -15
-12 -25 -3 -11 9 -12 15 -3 25 9 11 15 12 25 3 11 -9 12 -15 3 -25z m1952 13
c-13 -13 -26 -3 -16 12 3 6 11 8 17 5 6 -4 6 -10 -1 -17z m1789 3 c0 -5 -5
-10 -11 -10 -5 0 -7 5 -4 10 3 6 8 10 11 10 2 0 4 -4 4 -10z m870 -5 c0 -8 -4
-15 -10 -15 -5 0 -10 7 -10 15 0 8 5 15 10 15 6 0 10 -7 10 -15z m1020 -15 c0
-5 -4 -10 -10 -10 -5 0 -10 5 -10 10 0 6 5 10 10 10 6 0 10 -4 10 -10z m570 0
c0 -5 -2 -10 -4 -10 -3 0 -8 5 -11 10 -3 6 -1 10 4 10 6 0 11 -4 11 -10z
m-7300 -10 c0 -5 -7 -10 -15 -10 -8 0 -15 5 -15 10 0 6 7 10 15 10 8 0 15 -4
15 -10z m5360 -35 c0 -8 -9 -15 -20 -15 -11 0 -20 7 -20 15 0 8 9 15 20 15 11
0 20 -7 20 -15z m-5580 -5 c0 -5 -4 -10 -10 -10 -5 0 -10 5 -10 10 0 6 5 10
10 10 6 0 10 -4 10 -10z"/>
<path d="M6469 1713 c-147 -152 -408 -463 -402 -479 3 -8 -1 -14 -9 -14 -14 0
-47 -31 -64 -60 -33 -59 363 321 470 450 78 94 103 129 121 174 26 62 -5 43
-116 -71z"/>
<path d="M6359 1157 c-49 -24 -228 -191 -217 -203 17 -16 225 135 261 190 23
35 8 39 -44 13z"/>
<path d="M5806 898 c-18 -29 -31 -88 -19 -88 9 0 53 83 53 100 0 18 -19 10
-34 -12z"/>
<path d="M5704 803 c-214 -269 -357 -473 -342 -488 12 -13 80 26 134 77 61 57
165 192 233 301 37 60 42 76 44 133 1 35 2 64 1 64 0 0 -32 -39 -70 -87z"/>
<path d="M7852 1169 c-12 -25 -22 -50 -22 -56 0 -6 23 -13 51 -17 29 -4 65
-10 82 -13 30 -6 29 -5 -19 43 -27 27 -54 58 -60 68 -9 18 -12 15 -32 -25z"/>
<path d="M4098 1738 c-90 -71 -418 -400 -416 -417 2 -9 -2 -15 -8 -14 -6 1
-29 -17 -51 -40 -61 -63 -223 -260 -218 -265 12 -12 404 353 611 569 123 127
179 209 145 209 -5 0 -33 -19 -63 -42z"/>
<path d="M3303 1164 c-72 -36 -274 -231 -218 -210 74 27 265 180 265 212 0 18
-7 17 -47 -2z"/>
<path d="M4479 1157 c-49 -24 -228 -191 -217 -203 17 -16 225 135 261 190 23
35 8 39 -44 13z"/>
<path d="M2880 1161 c-116 -36 -348 -224 -385 -313 -15 -38 -15 -38 8 -38 51
0 295 184 377 284 58 71 58 84 0 67z m-215 -241 c3 -5 1 -10 -4 -10 -6 0 -11
5 -11 10 0 6 2 10 4 10 3 0 8 -4 11 -10z"/>
<path d="M4146 1093 c-20 -32 -36 -62 -36 -68 1 -19 90 97 90 118 0 21 -22 1
-54 -50z"/>
<path d="M4928 636 c-178 -141 -275 -247 -299 -327 -17 -55 -4 -60 40 -14 104
110 343 397 329 395 -2 -1 -33 -25 -70 -54z"/>
</g>
</svg>
